<?xml version="1.0"?>
<svg xmlns="http://www.w3.org/2000/svg" height="512px" viewBox="0 -58 512 512" width="512px"><path d="m401.832031 97.101562c0-11.660156-9.484375-21.144531-21.140625-21.144531-11.660156 0-21.144531 9.484375-21.144531 21.144531 0 11.65625 9.484375 21.140626 21.144531 21.140626 11.65625 0 21.140625-9.484376 21.140625-21.140626zm-27.28125 0c0-3.386718 2.753907-6.144531 6.140625-6.144531 3.386719 0 6.144532 2.757813 6.144532 6.144531 0 3.386719-2.757813 6.140626-6.144532 6.140626-3.386718 0-6.140625-2.753907-6.140625-6.140626zm0 0" fill="#FFFFFF"/><path d="m313.492188 184.359375-4.492188-14.3125c16.910156-5.308594 34.277344-13.121094 51.625-23.226563l7.550781 12.960938c-18.3125 10.667969-36.707031 18.9375-54.683593 24.578125zm63.445312-29.867187-7.949219-12.722657c4.074219-2.542969 8.199219-5.253906 12.265625-8.050781l8.5 12.359375c-4.246094 2.921875-8.558594 5.75-12.816406 8.414063zm21.148438-14.316407-8.84375-12.117187c3.917968-2.855469 7.855468-5.851563 11.703124-8.902344l9.316407 11.753906c-4.003907 3.175782-8.101563 6.292969-12.175781 9.265625zm0 0" fill="#FFFFFF"/><path d="m497 192.414062v34.417969c0 3.8125-3.101562 6.917969-6.917969 6.917969-3.8125 0-6.914062-3.105469-6.914062-6.917969v-95.550781c9.136719-3.125 15.726562-11.792969 15.726562-21.976562 0-12.808594-10.417969-23.226563-23.226562-23.226563-7.632813 0-14.417969 3.699219-18.652344 9.402344-20.710937-20.488281-77.0625-70.585938-149.175781-88.820313l-3.675782 14.542969c71.824219 18.160156 128.929688 71.472656 145.394532 88.101563-16.464844 16.632812-73.570313 69.941406-145.394532 88.101562l3.675782 14.542969c72.113281-18.230469 128.464844-68.332031 149.175781-88.820313 2.78125 3.742188 6.65625 6.617188 11.152344 8.152344v95.550781c0 3.8125-3.105469 6.917969-6.917969 6.917969s-6.917969-3.105469-6.917969-6.917969v-34.417969h-15v34.417969c0 12.085938 9.832031 21.917969 21.917969 21.917969 5.515625 0 10.558594-2.054688 14.417969-5.429688 3.855469 3.375 8.898437 5.429688 14.414062 5.429688 12.085938 0 21.917969-9.832031 21.917969-21.917969v-34.417969zm-21.332031-74.882812c-4.539063 0-8.230469-3.6875-8.230469-8.226562 0-4.535157 3.691406-8.226563 8.230469-8.226563 4.535156 0 8.226562 3.6875 8.226562 8.226563 0 4.535156-3.691406 8.226562-8.226562 8.226562zm0 0" fill="#FFFFFF"/><path d="m256.019531 0c-.007812 0-.011719 0-.019531 0-60.113281 0-113.914062 28.402344-148.464844 52.230469-24.363281 16.800781-42.589844 33.464843-52.539062 43.269531-4.234375-5.710938-11.023438-9.421875-18.664063-9.421875-12.808593 0-23.226562 10.417969-23.226562 23.226563 0 10.183593 6.589843 18.851562 15.726562 21.980468v95.546875c0 3.816407-3.101562 6.917969-6.914062 6.917969-3.816407 0-6.917969-3.101562-6.917969-6.917969v-34.414062h-15v34.414062c0 12.085938 9.832031 21.917969 21.917969 21.917969 5.515625 0 10.558593-2.054688 14.414062-5.429688 3.859375 3.375 8.902344 5.429688 14.417969 5.429688 12.085938 0 21.917969-9.832031 21.917969-21.917969v-34.414062h-15v34.414062c0 3.816407-3.105469 6.917969-6.917969 6.917969s-6.917969-3.101562-6.917969-6.917969v-95.546875c4.503907-1.542968 8.386719-4.421875 11.164063-8.171875 9.949218 9.800781 28.175781 26.46875 52.539062 43.269531 33.105469 22.832032 83.890625 49.84375 140.960938 52.066407v16.550781c-9.136719 3.128906-15.726563 11.796875-15.726563 21.976562 0 10.183594 6.589844 18.851563 15.726563 21.980469v95.546875c0 3.816406-3.101563 6.917969-6.917969 6.917969-3.8125 0-6.914063-3.101563-6.914063-6.917969v-34.414062h-15v34.414062c0 12.085938 9.832032 21.917969 21.914063 21.917969 5.519531 0 10.5625-2.054687 14.417969-5.429687 3.859375 3.375 8.902344 5.429687 14.417968 5.429687 12.082032 0 21.914063-9.832031 21.914063-21.917969v-34.414062h-15v34.414062c0 3.816406-3.101563 6.917969-6.914063 6.917969s-6.917968-3.101563-6.917968-6.917969v-95.546875c9.136718-3.128906 15.726562-11.796875 15.726562-21.980469 0-10.179687-6.589844-18.847656-15.726562-21.976562v-16.535156c7.792968-.304688 15.71875-1.074219 23.652344-2.300782l6.351562-.984374v-211.746094l-6.351562-.984375c-10.492188-1.625-20.964844-2.449219-31.128907-2.449219zm-219.6875 117.53125c-4.535156 0-8.226562-3.6875-8.226562-8.226562 0-4.535157 3.691406-8.226563 8.226562-8.226563 4.539063 0 8.230469 3.6875 8.230469 8.226563 0 4.535156-3.691406 8.226562-8.230469 8.226562zm227.890625 139.445312c0 4.535157-3.6875 8.226563-8.226562 8.226563-4.535156 0-8.226563-3.6875-8.226563-8.226563 0-4.539062 3.691407-8.230468 8.226563-8.230468 4.535156.003906 8.226562 3.691406 8.226562 8.230468zm14.277344-54.761718c-7.59375.925781-15.140625 1.394531-22.5 1.394531-7.089844 0-14.09375-.429687-20.984375-1.222656v-167.75h-15v165.4375c-15.265625-2.949219-29.859375-7.546875-43.484375-13.054688v-135.503906h-15v128.914063c-16.496094-7.816407-31.203125-16.683594-43.484375-25.03125v-70.125h-15v59.371093c-19.449219-14.675781-33.664063-28.296875-40.617187-35.339843 8.457031-8.566407 27.648437-26.855469 53.929687-44.941407 32.722656-22.519531 83.515625-49.363281 139.640625-49.363281 7.359375 0 14.902344.46875 22.5 1.394531zm0 0" fill="#FFFFFF"/></svg>
